<svg id="_x31__px" enable-background="new 0 0 24 24" height="512" viewBox="0 0 24 24" width="512" xmlns="http://www.w3.org/2000/svg"><path d="m16.104 12h-8.208c-.744 0-1.443-.327-1.919-.898s-.673-1.318-.54-2.049l1.272-7c.217-1.19 1.251-2.053 2.46-2.053h5.662c1.208 0 2.243.863 2.459 2.052l1.272 7c.133.731-.064 1.479-.54 2.049-.476.572-1.175.899-1.918.899zm-6.935-11c-.725 0-1.346.518-1.476 1.232l-1.272 7c-.08.439.039.887.324 1.23.286.342.705.538 1.151.538h8.207c.446 0 .866-.196 1.152-.539s.404-.791.324-1.23l-1.272-7c-.13-.713-.751-1.231-1.476-1.231z"/><path d="m17.5 18h-11c-.827 0-1.5-.673-1.5-1.5 0-1.378 1.122-2.5 2.5-2.5h9c1.378 0 2.5 1.122 2.5 2.5 0 .827-.673 1.5-1.5 1.5zm-10-3c-.827 0-1.5.673-1.5 1.5 0 .276.224.5.5.5h11c.276 0 .5-.224.5-.5 0-.827-.673-1.5-1.5-1.5z"/><path d="m17.5 24c-.276 0-.5-.224-.5-.5v-1c0-.276-.224-.5-.5-.5h-9c-.276 0-.5.224-.5.5v1c0 .276-.224.5-.5.5s-.5-.224-.5-.5v-1c0-.827.673-1.5 1.5-1.5h9c.827 0 1.5.673 1.5 1.5v1c0 .276-.224.5-.5.5z"/><path d="m12 15c-.276 0-.5-.224-.5-.5v-3c0-.276.224-.5.5-.5s.5.224.5.5v3c0 .276-.224.5-.5.5z"/><path d="m12 21.5c-.276 0-.5-.224-.5-.5v-3.5c0-.276.224-.5.5-.5s.5.224.5.5v3.5c0 .276-.224.5-.5.5z"/></svg>